# xmcd CD database file
#
# Track frame offsets:
#	150
#	14502
#	25943
#	41657
#	55697
#	69885
#	84245
#	96980
#	113142
#	128140
#	145862
#	161012
#	175685
#	193825
#	210420
#	223750
#	238107
#	253418
#	268565
#	279820
#	291515
#	304645
#	318500
#
# Disc length: 4403 seconds
#
# Revision: 0
# Processed by: cddbd v1.5.2PL0 Copyright (c) Steve Scherf et al.
# Submitted via: CDex 1.70beta2
#
DISCID=50113117
DTITLE=ChartBreakers - ChartBreakers CGC-503
DYEAR=0000
DGENRE=Country
TTITLE0=Mark Collie/Born To Love You
TTITLE1=Alan JAckson/Chattahoochee
TTITLE2=Toby Keith/Should've Been A Cowboy
TTITLE3=Tracy Lawrence/Alibis
TTITLE4=McBride and The Ride/Love On The Loose, Heart On The Run
TTITLE5=Lee Roy Parnell/Tender Moments
TTITLE6=Tracy Lawrence/My Second Home
TTITLE7=Little Texas/God Blessed Texas
TTITLE8=Alabama/Down Home
TTITLE9=Clint Black/Burn One Down
TTITLE10=Mary-Chapin Carpenter/Going Out Tonight
TTITLE11=Billy Dean/You Don't Count The Cost
TTITLE12=Vince Gill/I Still Believe In You
TTITLE13=Alabama/Forever's As Far As I'll Go
TTITLE14=Suzy Bogguss/Outbound Plane
TTITLE15=Mary-Chapin Carpenter/Passionate Kisses
TTITLE16=Billy Dean/If There Hadn't Been You
TTITLE17=Alan Jackson/Someday
TTITLE18=Patty Loveless/Chains
TTITLE19=Willie Nelson and Waylon Jennings/Mammas, Don't Let Your Babies Grow Up To Be Cowboys
TTITLE20=Oak Ridge Boys/No Matter How High
TTITLE21=Lee Roy Parnell/Love Without Mercy
TTITLE22=Eddy Raven/I'm Gonna Get You
EXTD=YEAR: 0000
EXTT0=
EXTT1=
EXTT2=
EXTT3=
EXTT4=
EXTT5=
EXTT6=
EXTT7=
EXTT8=
EXTT9=
EXTT10=
EXTT11=
EXTT12=
EXTT13=
EXTT14=
EXTT15=
EXTT16=
EXTT17=
EXTT18=
EXTT19=
EXTT20=
EXTT21=
EXTT22=
PLAYORDER=
